# File created by Blade
# Date/Time:  Wed Apr 08 17:16:55 2015
#---------------------------------------------------------
:version 1.10
:name HOM
:units
  mass 1.0
  length 1.000000
  angle deg
:documentation
     Acclaim Skeleton File
:root
   axis xyz
   order TX TY TZ RX RY RZ
   position 0.000000 0.000000 0.000000
   orientation 0 0 0
:bonedata
   begin
      id 1
      name Spine_dum
      direction 0.000000 1.000000 0.000000
      length 5.893853
      axis 0.0 0.0 0.0 xyz
   end
   begin
      id 2
      name LeftUpLeg_dum
      direction 1.000000 0.000000 0.000000
      length 3.697939
      axis 0.0 0.0 0.0 xyz
   end
   begin
      id 3
      name RightUpLeg_dum
      direction -1.000000 0.000000 0.000000
      length 3.697939
      axis 0.0 0.0 0.0 xyz
   end
   begin
      id 4
      name Spine
      direction 0.000000 1.000000 0.000000
      length 0.000000
      axis 0.0 0.0 0.0 xyz
      dof rx ry rz
   end
   begin
      id 5
      name Spine_dum1
      direction 0.000000 1.000000 0.000000
      length 16.447146
      axis 0.0 0.0 0.0 xyz
   end
   begin
      id 6
      name Spine_dum2
      direction 0.000000 1.000000 0.000000
      length 10.900383
      axis 0.0 0.0 0.0 xyz
   end
   begin
      id 7
      name Spine_dum3
      direction 0.000000 1.000000 0.000000
      length 10.900383
      axis 0.0 0.0 0.0 xyz
   end
   begin
      id 8
      name Head
      direction 0.000000 1.000000 0.000000
      length 4.527550
      axis 0.0 0.0 0.0 xyz
      dof rx ry rz
   end
   begin
      id 9
      name LeftShoulder
      direction 1.000000 0.000000 0.000000
      length 8.219464
      axis 0.0 0.0 -90.0 xyz
      dof rx ry rz
   end
   begin
      id 10
      name LeftArm
      direction 1.000000 0.000000 0.000000
      length 11.094937
      axis 0.0 0.0 -90.0 xyz
      dof rx ry rz
   end
   begin
      id 11
      name LeftForeArm
      direction 1.000000 0.000000 0.000000
      length 9.103875
      axis 0.0 0.0 -90.0 xyz
      dof ry rz rx
   end
   begin
      id 12
      name LeftHand
      direction 0.000000 0.000000 0.000000
      length 0.000000
      axis 0.0 0.0 -90.0 xyz
      dof rx ry rz
   end
   begin
      id 13
      name LeftHand_dum1
      direction 0.000000 0.000000 0.000000
      length 0.000000
      axis 0.0 0.0 -90.0 xyz
   end
   begin
      id 14
      name LeftHand_dum2
      direction 1.000000 0.000000 0.000000
      length 3.937000
      axis 0.0 0.0 -90.0 xyz
   end
   begin
      id 15
      name LeftHandThumb1
      direction 0.000000 0.000000 1.000000
      length 3.937000
      axis 0.0 0.0 -90.0 xyz
      dof rx rz ry
   end
   begin
      id 16
      name RightShoulder
      direction -1.000000 0.000000 0.000000
      length 8.219464
      axis 0.0 0.0 90.0 xyz
      dof rx ry rz
   end
   begin
      id 17
      name RightArm
      direction -1.000000 0.000000 0.000000
      length 11.094937
      axis 0.0 0.0 90.0 xyz
      dof rx ry rz
   end
   begin
      id 18
      name RightForeArm
      direction -1.000000 0.000000 0.000000
      length 9.103875
      axis 0.0 0.0 90.0 xyz
      dof ry rz rx
   end
   begin
      id 19
      name RightHand
      direction 0.000000 0.000000 0.000000
      length 0.000000
      axis 0.0 0.0 90.0 xyz
      dof rx ry rz
   end
   begin
      id 20
      name RightHand_dum1
      direction 0.000000 0.000000 0.000000
      length 0.000000
      axis 0.0 0.0 90.0 xyz
   end
   begin
      id 21
      name RightHand_dum2
      direction -1.000000 0.000000 0.000000
      length 3.937000
      axis 0.0 0.0 90.0 xyz
   end
   begin
      id 22
      name RightHandThumb1
      direction 0.000000 0.000000 1.000000
      length 3.937000
      axis 0.0 0.0 90.0 xyz
      dof rx rz ry
   end
   begin
      id 23
      name LeftUpLeg
      direction 0.000000 -1.000000 0.000000
      length 16.181467
      axis 0.0 0.0 0.0 xyz
      dof rx ry rz
   end
   begin
      id 24
      name LeftLeg
      direction 0.000000 -1.000000 0.000000
      length 16.501392
      axis 0.0 0.0 0.0 xyz
      dof rx ry rz
   end
   begin
      id 25
      name LeftFoot
      direction 0.000000 -0.258819 0.965926
      length 6.408245
      axis 15.0 0.0 0.0 xyz
      dof rx ry rz
   end
   begin
      id 26
      name LeftToeBase
      direction 0.000000 0.000000 1.000000
      length 2.952750
      axis 0.0 0.0 0.0 xyz
      dof rx ry rz
   end
   begin
      id 27
      name RightUpLeg
      direction 0.000000 -1.000000 0.000000
      length 16.181467
      axis 0.0 0.0 0.0 xyz
      dof rx ry rz
   end
   begin
      id 28
      name RightLeg
      direction 0.000000 -1.000000 0.000000
      length 16.501392
      axis 0.0 0.0 0.0 xyz
      dof rx ry rz
   end
   begin
      id 29
      name RightFoot
      direction 0.000000 -0.258819 0.965926
      length 6.408245
      axis 15.0 0.0 0.0 xyz
      dof rx ry rz
   end
   begin
      id 30
      name RightToeBase
      direction 0.000000 0.000000 1.000000
      length 2.952750
      axis 0.0 0.0 0.0 xyz
      dof rx ry rz
   end
:hierarchy
   begin
      root Spine_dum LeftUpLeg_dum RightUpLeg_dum
      Spine_dum Spine
      LeftUpLeg_dum LeftUpLeg
      RightUpLeg_dum RightUpLeg
      Spine Spine_dum1 Spine_dum2 Spine_dum3
      Spine_dum1 Head
      Spine_dum2 LeftShoulder
      Spine_dum3 RightShoulder
      LeftShoulder LeftArm
      LeftArm LeftForeArm
      LeftForeArm LeftHand
      LeftHand LeftHand_dum1 LeftHand_dum2
      LeftHand_dum1 LeftHandThumb1
      RightShoulder RightArm
      RightArm RightForeArm
      RightForeArm RightHand
      RightHand RightHand_dum1 RightHand_dum2
      RightHand_dum1 RightHandThumb1
      LeftUpLeg LeftLeg
      LeftLeg LeftFoot
      LeftFoot LeftToeBase
      RightUpLeg RightLeg
      RightLeg RightFoot
      RightFoot RightToeBase
   end

# File created by Blade
# Date/Time:  Wed Apr 08 17:17:01 2015
# Frame Rate: 120.000 fps
#------------------------------------------------------
:FULLY-SPECIFIED
:DEGREES
112
root 5.716079 36.151241 -3.214600 -103.596469 -86.664018 99.425172
Spine 13.508935 1.442814 -0.819401
Head 3.691328 15.081458 -2.116601
LeftShoulder -6.666125 11.991298 25.311843
LeftArm 13.585566 -33.659568 -44.420787
LeftForeArm 22.442753 -0.000000 16.720814
LeftHand -12.666115 -0.000000 -11.144178
LeftHandThumb1 -26.253704 0.000000 33.147579
RightShoulder -22.911569 -40.548674 -11.515077
RightArm 53.747968 43.265484 55.258268
RightForeArm 5.117332 -0.000000 5.923329
RightHand -1.500394 -0.000000 3.377637
RightHandThumb1 -24.326973 -0.000000 -32.862282
LeftUpLeg -0.008114 19.069302 8.687044
LeftLeg 19.551863 -0.000000 -0.000000
LeftFoot -7.218625 5.410085 -13.900193
LeftToeBase -5.375693 -0.000000 0.000000
RightUpLeg 9.815989 -9.530557 -8.280685
RightLeg 3.746557 -0.000000 -0.000000
RightFoot -13.465392 -2.806016 17.588630
RightToeBase 10.844634 -0.000000 -0.000000
113
root 5.747689 36.161929 -3.225366 -98.264814 -86.554947 94.093469
Spine 13.635050 1.411981 -0.850707
Head 3.794901 15.107762 -2.193506
LeftShoulder -6.670429 12.153974 25.116944
LeftArm 13.841456 -33.675362 -45.154227
LeftForeArm 22.733530 -0.000000 17.894749
LeftHand -12.639897 0.000000 -11.091174
LeftHandThumb1 -26.253704 0.000000 33.147579
RightShoulder -23.018199 -40.688809 -11.311693
RightArm 53.613334 42.978563 55.420934
RightForeArm 4.994798 -0.000000 6.467950
RightHand -1.484867 -0.000000 3.361912
RightHandThumb1 -24.326973 -0.000000 -32.862282
LeftUpLeg -0.646361 19.447964 8.319043
LeftLeg 20.516166 -0.000000 -0.000000
LeftFoot -7.691167 5.657327 -13.527403
LeftToeBase -5.727739 -0.000000 0.000000
RightUpLeg 9.869239 -9.666276 -8.401256
RightLeg 3.658236 -0.000000 -0.000000
RightFoot -13.466404 -2.957330 17.640907
RightToeBase 10.863719 -0.000000 -0.000000
114
root 5.777505 36.172864 -3.228479 -93.043549 -86.413051 88.873060
Spine 13.750609 1.367872 -0.870669
Head 3.915807 15.128344 -2.311819
LeftShoulder -6.679455 12.337160 24.903418
LeftArm 14.047316 -33.537400 -45.854647
LeftForeArm 22.842593 0.000000 19.191975
LeftHand -12.648537 -0.000000 -11.099419
LeftHandThumb1 -26.253704 0.000000 33.147579
RightShoulder -23.078063 -40.776698 -11.176271
RightArm 53.476284 42.748081 55.728965
RightForeArm 4.659339 -0.000000 7.075545
RightHand -1.381292 -0.000000 3.499108
RightHandThumb1 -24.326973 -0.000000 -32.862282
LeftUpLeg -1.272656 19.874301 7.917287
LeftLeg 21.473791 -0.000000 -0.000000
LeftFoot -8.254139 5.890082 -13.269689
LeftToeBase -5.881834 -0.000000 0.000000
RightUpLeg 9.928669 -9.833251 -8.545490
RightLeg 3.571725 -0.000000 -0.000000
RightFoot -13.463937 -3.094727 17.691203
RightToeBase 10.878060 -0.000000 -0.000000
115
root 5.803809 36.183137 -3.229307 -88.558749 -86.251524 84.384926
Spine 13.863636 1.373880 -0.886709
Head 4.029565 15.117741 -2.399322
LeftShoulder -6.671531 12.469473 24.721506
LeftArm 14.237361 -33.278522 -46.595867
LeftForeArm 22.910102 -0.000000 20.494582
LeftHand -12.770875 -0.000000 -10.881715
LeftHandThumb1 -26.253704 0.000000 33.147579
RightShoulder -23.214722 -40.868308 -10.940185
RightArm 53.312256 42.483014 55.946234
RightForeArm 4.418144 -0.000000 7.709113
RightHand -1.397440 0.000000 3.648107
RightHandThumb1 -24.326973 -0.000000 -32.862282
LeftUpLeg -1.858345 20.333197 7.521129
LeftLeg 22.423451 -0.000000 -0.000000
LeftFoot -8.913807 6.086517 -13.398577
LeftToeBase -5.928180 -0.000000 0.000000
RightUpLeg 9.986695 -9.993389 -8.689337
RightLeg 3.498405 -0.000000 -0.000000
RightFoot -13.455510 -3.210176 17.736073
RightToeBase 10.857468 -0.000000 -0.000000
116
root 5.825143 36.193959 -3.226850 -84.660173 -86.064434 80.467355
Spine 13.973721 1.395284 -0.926619
Head 4.167418 15.132518 -2.444977
LeftShoulder -6.640186 12.580833 24.590687
LeftArm 14.338547 -33.015045 -47.405922
LeftForeArm 22.963778 0.000000 21.929216
LeftHand -12.969530 0.000000 -10.560626
LeftHandThumb1 -26.253704 0.000000 33.147579
RightShoulder -23.323644 -40.979623 -10.669564
RightArm 53.086911 42.230167 56.127020
RightForeArm 4.181278 0.000000 8.394324
RightHand -1.369255 -0.000000 3.827263
RightHandThumb1 -24.326973 -0.000000 -32.862282
LeftUpLeg -2.374418 20.870860 7.119606
LeftLeg 23.309216 -0.000000 -0.000000
LeftFoot -9.610551 6.184684 -13.629072
LeftToeBase -5.906552 -0.000000 0.000000
RightUpLeg 10.067175 -10.170606 -8.854873
RightLeg 3.424113 -0.000000 -0.000000
RightFoot -13.429950 -3.317592 17.744972
RightToeBase 10.827527 -0.000000 -0.000000
117
root 5.844175 36.202916 -3.222108 -81.486545 -85.879119 77.272467
Spine 14.088508 1.422685 -0.959498
Head 4.265597 15.158384 -2.491727
LeftShoulder -6.612292 12.609825 24.495856
LeftArm 14.282447 -32.601467 -48.183607
LeftForeArm 22.912267 -0.000000 23.424108
LeftHand -13.064185 -0.000000 -10.354264
LeftHandThumb1 -26.253704 0.000000 33.147579
RightShoulder -23.509831 -41.147534 -10.321762
RightArm 53.159097 42.055297 56.549123
RightForeArm 3.802544 -0.000000 9.027252
RightHand -1.408897 -0.000000 4.025472
RightHandThumb1 -24.326973 -0.000000 -32.862282
LeftUpLeg -2.834959 21.492629 6.735525
LeftLeg 24.135271 -0.000000 -0.000000
LeftFoot -10.267099 6.177574 -13.832089
LeftToeBase -5.834672 -0.000000 0.000000
RightUpLeg 10.141144 -10.320643 -9.009469
RightLeg 3.366341 -0.000000 -0.000000
RightFoot -13.430132 -3.405079 17.803445
RightToeBase 10.830364 -0.000000 -0.000000
118
root 5.859178 36.211848 -3.213580 -78.825437 -85.687532 74.579857
Spine 14.201275 1.467544 -0.996114
Head 4.377450 15.195533 -2.513250
LeftShoulder -6.608471 12.727308 24.394766
LeftArm 14.331756 -32.245465 -49.047151
LeftForeArm 22.957072 -0.000000 24.872635
LeftHand -13.055260 -0.000000 -10.135323
LeftHandThumb1 -26.253704 0.000000 33.147579
RightShoulder -23.598604 -41.251033 -10.101842
RightArm 53.032342 41.785991 56.973864
RightForeArm 3.578584 0.000000 9.802621
RightHand -1.444451 -0.000000 4.284933
RightHandThumb1 -24.326973 -0.000000 -32.862282
LeftUpLeg -3.220320 22.118495 6.354425
LeftLeg 24.865795 -0.000000 -0.000000
LeftFoot -10.856406 6.092712 -14.132089
LeftToeBase -5.739215 -0.000000 0.000000
RightUpLeg 10.230182 -10.464909 -9.175018
RightLeg 3.303449 -0.000000 -0.000000
RightFoot -13.412922 -3.487464 17.827254
RightToeBase 10.774246 -0.000000 -0.000000
119
root 5.871846 36.219611 -3.201830 -76.557591 -85.500208 72.292875
Spine 14.297624 1.496607 -1.030168
Head 4.463141 15.236335 -2.553835
LeftShoulder -6.652954 12.889683 24.239182
LeftArm 14.401482 -31.922777 -49.900076
LeftForeArm 22.924061 0.000000 26.349327
LeftHand -12.995181 -0.000000 -10.081133
LeftHandThumb1 -26.253704 0.000000 33.147579
RightShoulder -23.803469 -41.404626 -9.782712
RightArm 53.091840 41.429648 57.350102
RightForeArm 3.375831 -0.000000 10.419996
RightHand -1.494869 -0.000000 4.461686
RightHandThumb1 -24.326973 -0.000000 -32.862282
LeftUpLeg -3.556871 22.697588 5.954152
LeftLeg 25.473817 -0.000000 -0.000000
LeftFoot -11.387219 6.099607 -14.380373
LeftToeBase -5.700659 -0.000000 0.000000
RightUpLeg 10.297609 -10.583736 -9.332261
RightLeg 3.262870 -0.000000 -0.000000
RightFoot -13.410846 -3.575134 17.846153
RightToeBase 10.773529 -0.000000 -0.000000
120
root 5.883688 36.225983 -3.187463 -74.750180 -85.324278 70.471034
Spine 14.382785 1.556213 -1.064231
Head 4.543628 15.270626 -2.568782
LeftShoulder -6.696601 13.042784 24.089705
LeftArm 14.472131 -31.619992 -50.759845
LeftForeArm 23.059746 -0.000000 27.789570
LeftHand -12.851000 -0.000000 -10.305751
LeftHandThumb1 -26.253704 0.000000 33.147579
RightShoulder -23.910282 -41.505459 -9.493984
RightArm 52.521763 40.780408 57.039062
RightForeArm 3.706549 -0.000000 11.230371
RightHand -1.650301 -0.000000 4.073979
RightHandThumb1 -24.326973 -0.000000 -32.862282
LeftUpLeg -3.851055 23.283009 5.565091
LeftLeg 26.012325 -0.000000 -0.000000
LeftFoot -11.877547 6.035337 -14.601796
LeftToeBase -5.647725 -0.000000 0.000000
RightUpLeg 10.350317 -10.672732 -9.481186
RightLeg 3.231857 -0.000000 -0.000000
RightFoot -13.421747 -3.654831 17.912952
RightToeBase 10.775814 -0.000000 -0.000000
121
root 5.891406 36.231432 -3.172018 -72.895390 -85.157723 68.612599
Spine 14.424603 1.611321 -1.098326
Head 4.668376 15.287798 -2.558006
LeftShoulder -6.745359 13.247154 23.921940
LeftArm 14.592081 -31.372197 -51.645784
LeftForeArm 23.290553 -0.000000 29.241680
LeftHand -12.687656 -0.000000 -10.532721
LeftHandThumb1 -26.253704 0.000000 33.147579
RightShoulder -24.098786 -41.711775 -9.109721
RightArm 52.238926 40.206810 56.936004
RightForeArm 3.904008 0.000000 11.947002
RightHand -1.707944 -0.000000 4.036537
RightHandThumb1 -24.326973 -0.000000 -32.862282
LeftUpLeg -4.132400 23.847931 5.185685
LeftLeg 26.492839 -0.000000 -0.000000
LeftFoot -12.317711 5.928972 -14.915635
LeftToeBase -5.493013 -0.000000 0.000000
RightUpLeg 10.399136 -10.777411 -9.616032
RightLeg 3.206944 -0.000000 -0.000000
RightFoot -13.427190 -3.730927 17.984823
RightToeBase 10.729823 -0.000000 -0.000000
122
root 5.898603 36.236045 -3.151928 -71.206884 -84.983664 66.916392
Spine 14.475328 1.625257 -1.138731
Head 4.761883 15.322786 -2.580682
LeftShoulder -6.835368 13.512189 23.706727
LeftArm 14.737911 -31.101773 -52.502155
LeftForeArm 23.624746 -0.000000 30.670021
LeftHand -12.547287 -0.000000 -10.871667
LeftHandThumb1 -26.253704 0.000000 33.147579
RightShoulder -24.180018 -41.838697 -8.867453
RightArm 51.960139 39.608376 56.972018
RightForeArm 3.897026 -0.000000 12.643937
RightHand -1.615432 -0.000000 3.989423
RightHandThumb1 -24.326973 -0.000000 -32.862282
LeftUpLeg -4.348337 24.285365 4.794745
LeftLeg 26.863917 -0.000000 -0.000000
LeftFoot -12.673532 5.843168 -15.028460
LeftToeBase -5.555304 -0.000000 0.000000
RightUpLeg 10.440676 -10.906433 -9.772657
RightLeg 3.213154 -0.000000 -0.000000
RightFoot -13.447542 -3.755332 18.066625
RightToeBase 10.724243 -0.000000 -0.000000
123
root 5.902114 36.239368 -3.130909 -69.768852 -84.818093 65.472334
Spine 14.511577 1.658139 -1.181736
Head 4.844349 15.363375 -2.603006
LeftShoulder -6.943810 13.729498 23.480712
LeftArm 14.840569 -30.676269 -53.293152
LeftForeArm 23.925179 -0.000000 32.087078
LeftHand -12.545834 -0.000000 -11.015439
LeftHandThumb1 -26.253704 0.000000 33.147579
RightShoulder -24.360377 -42.036480 -8.484779
RightArm 51.957747 39.170575 57.248149
RightForeArm 3.672138 0.000000 13.377233
RightHand -1.707558 0.000000 4.032004
RightHandThumb1 -24.326973 -0.000000 -32.862282
LeftUpLeg -4.513694 24.847819 4.420784
LeftLeg 27.110813 -0.000000 -0.000000
LeftFoot -12.980185 5.692178 -15.221067
LeftToeBase -5.422728 -0.000000 0.000000
RightUpLeg 10.477804 -11.062177 -9.935055
RightLeg 3.234102 -0.000000 -0.000000
RightFoot -13.457139 -3.736025 18.131257
RightToeBase 10.672848 -0.000000 -0.000000
